<mxfile host="Electron" modified="2023-08-12T02:37:25.150Z" agent="Mozilla/5.0 (X11; Linux x86_64) AppleWebKit/537.36 (KHTML, like Gecko) draw.io/21.6.8 Chrome/114.0.5735.289 Electron/25.5.0 Safari/537.36" etag="X7lATDd8JFwBsrx-IrN9" version="21.6.8" type="device">
  <diagram name="Página-1" id="Página-1">
    <mxGraphModel dx="1590" dy="-116" grid="1" gridSize="10" guides="1" tooltips="1" connect="1" arrows="1" fold="1" page="1" pageScale="1" pageWidth="850" pageHeight="1100" math="0" shadow="0">
      <root>
        <mxCell id="0" />
        <mxCell id="1" parent="0" />
        <mxCell id="b3ruvdXfxAipYuuYTNX5-90" value="" style="rounded=1;whiteSpace=wrap;html=1;fillColor=none;dashed=1;movable=0;resizable=0;rotatable=0;deletable=0;editable=0;locked=1;connectable=0;" vertex="1" parent="1">
          <mxGeometry x="1080" y="1560" width="920" height="480" as="geometry" />
        </mxCell>
        <mxCell id="b3ruvdXfxAipYuuYTNX5-76" value="" style="rounded=1;whiteSpace=wrap;html=1;fillColor=none;dashed=1;movable=0;resizable=0;rotatable=0;deletable=0;editable=0;locked=1;connectable=0;" vertex="1" parent="1">
          <mxGeometry x="1241" y="1680" width="599" height="200" as="geometry" />
        </mxCell>
        <mxCell id="b3ruvdXfxAipYuuYTNX5-58" style="edgeStyle=orthogonalEdgeStyle;rounded=0;orthogonalLoop=1;jettySize=auto;html=1;" edge="1" parent="1" source="b3ruvdXfxAipYuuYTNX5-49" target="b3ruvdXfxAipYuuYTNX5-51">
          <mxGeometry relative="1" as="geometry">
            <Array as="points">
              <mxPoint x="1660" y="1740" />
              <mxPoint x="1660" y="1740" />
            </Array>
          </mxGeometry>
        </mxCell>
        <mxCell id="b3ruvdXfxAipYuuYTNX5-88" value="check voting&lt;br&gt;state/options" style="edgeLabel;html=1;align=center;verticalAlign=middle;resizable=0;points=[];" vertex="1" connectable="0" parent="b3ruvdXfxAipYuuYTNX5-58">
          <mxGeometry x="0.1707" relative="1" as="geometry">
            <mxPoint x="-25" as="offset" />
          </mxGeometry>
        </mxCell>
        <mxCell id="b3ruvdXfxAipYuuYTNX5-74" style="edgeStyle=orthogonalEdgeStyle;rounded=0;orthogonalLoop=1;jettySize=auto;html=1;" edge="1" parent="1" source="b3ruvdXfxAipYuuYTNX5-49" target="b3ruvdXfxAipYuuYTNX5-57">
          <mxGeometry relative="1" as="geometry">
            <Array as="points">
              <mxPoint x="1635" y="1780" />
              <mxPoint x="1635" y="1820" />
            </Array>
          </mxGeometry>
        </mxCell>
        <mxCell id="b3ruvdXfxAipYuuYTNX5-82" value="create/manage&lt;br&gt;votings" style="edgeLabel;html=1;align=center;verticalAlign=middle;resizable=0;points=[];" vertex="1" connectable="0" parent="b3ruvdXfxAipYuuYTNX5-74">
          <mxGeometry x="0.4078" y="2" relative="1" as="geometry">
            <mxPoint x="40" y="-2" as="offset" />
          </mxGeometry>
        </mxCell>
        <mxCell id="b3ruvdXfxAipYuuYTNX5-75" style="edgeStyle=orthogonalEdgeStyle;rounded=0;orthogonalLoop=1;jettySize=auto;html=1;" edge="1" parent="1" source="b3ruvdXfxAipYuuYTNX5-49" target="b3ruvdXfxAipYuuYTNX5-56">
          <mxGeometry relative="1" as="geometry">
            <Array as="points">
              <mxPoint x="1565" y="1760" />
              <mxPoint x="1565" y="1780" />
              <mxPoint x="1350" y="1780" />
            </Array>
          </mxGeometry>
        </mxCell>
        <mxCell id="b3ruvdXfxAipYuuYTNX5-83" value="retrieve voting&lt;br&gt;info" style="edgeLabel;html=1;align=center;verticalAlign=middle;resizable=0;points=[];" vertex="1" connectable="0" parent="b3ruvdXfxAipYuuYTNX5-75">
          <mxGeometry x="-0.1955" y="1" relative="1" as="geometry">
            <mxPoint x="16" y="-1" as="offset" />
          </mxGeometry>
        </mxCell>
        <mxCell id="b3ruvdXfxAipYuuYTNX5-49" value="**http&amp;nbsp;endpoints" style="rounded=1;whiteSpace=wrap;html=1;" vertex="1" parent="1">
          <mxGeometry x="1680" y="1720" width="120" height="80" as="geometry" />
        </mxCell>
        <mxCell id="b3ruvdXfxAipYuuYTNX5-84" style="edgeStyle=orthogonalEdgeStyle;rounded=0;orthogonalLoop=1;jettySize=auto;html=1;" edge="1" parent="1" source="b3ruvdXfxAipYuuYTNX5-50" target="b3ruvdXfxAipYuuYTNX5-49">
          <mxGeometry relative="1" as="geometry" />
        </mxCell>
        <mxCell id="b3ruvdXfxAipYuuYTNX5-50" value="nginx" style="rounded=1;whiteSpace=wrap;html=1;" vertex="1" parent="1">
          <mxGeometry x="1880" y="1720" width="80" height="80" as="geometry" />
        </mxCell>
        <mxCell id="b3ruvdXfxAipYuuYTNX5-59" style="edgeStyle=orthogonalEdgeStyle;rounded=0;orthogonalLoop=1;jettySize=auto;html=1;" edge="1" parent="1" source="b3ruvdXfxAipYuuYTNX5-51" target="b3ruvdXfxAipYuuYTNX5-52">
          <mxGeometry relative="1" as="geometry" />
        </mxCell>
        <mxCell id="b3ruvdXfxAipYuuYTNX5-87" style="edgeStyle=orthogonalEdgeStyle;rounded=0;orthogonalLoop=1;jettySize=auto;html=1;" edge="1" parent="1" source="b3ruvdXfxAipYuuYTNX5-51" target="b3ruvdXfxAipYuuYTNX5-56">
          <mxGeometry relative="1" as="geometry">
            <Array as="points">
              <mxPoint x="1320" y="1740" />
            </Array>
          </mxGeometry>
        </mxCell>
        <mxCell id="b3ruvdXfxAipYuuYTNX5-51" value="vote validator" style="rounded=1;whiteSpace=wrap;html=1;" vertex="1" parent="1">
          <mxGeometry x="1365" y="1720" width="120" height="40" as="geometry" />
        </mxCell>
        <mxCell id="b3ruvdXfxAipYuuYTNX5-60" style="edgeStyle=orthogonalEdgeStyle;rounded=0;orthogonalLoop=1;jettySize=auto;html=1;" edge="1" parent="1" source="b3ruvdXfxAipYuuYTNX5-52" target="b3ruvdXfxAipYuuYTNX5-55">
          <mxGeometry relative="1" as="geometry" />
        </mxCell>
        <mxCell id="b3ruvdXfxAipYuuYTNX5-52" value="RabbitMQ" style="shape=cylinder3;whiteSpace=wrap;html=1;boundedLbl=1;backgroundOutline=1;size=15;direction=south;" vertex="1" parent="1">
          <mxGeometry x="1365" y="1600" width="120" height="40" as="geometry" />
        </mxCell>
        <mxCell id="b3ruvdXfxAipYuuYTNX5-85" style="edgeStyle=orthogonalEdgeStyle;rounded=0;orthogonalLoop=1;jettySize=auto;html=1;" edge="1" parent="1" source="b3ruvdXfxAipYuuYTNX5-55" target="b3ruvdXfxAipYuuYTNX5-61">
          <mxGeometry relative="1" as="geometry">
            <Array as="points">
              <mxPoint x="1200" y="1960" />
            </Array>
          </mxGeometry>
        </mxCell>
        <mxCell id="b3ruvdXfxAipYuuYTNX5-86" style="edgeStyle=orthogonalEdgeStyle;rounded=0;orthogonalLoop=1;jettySize=auto;html=1;" edge="1" parent="1" source="b3ruvdXfxAipYuuYTNX5-55" target="b3ruvdXfxAipYuuYTNX5-62">
          <mxGeometry relative="1" as="geometry">
            <Array as="points">
              <mxPoint x="1180" y="2020" />
              <mxPoint x="1490" y="2020" />
            </Array>
          </mxGeometry>
        </mxCell>
        <mxCell id="b3ruvdXfxAipYuuYTNX5-97" style="edgeStyle=orthogonalEdgeStyle;rounded=0;orthogonalLoop=1;jettySize=auto;html=1;" edge="1" parent="1" source="b3ruvdXfxAipYuuYTNX5-55" target="b3ruvdXfxAipYuuYTNX5-96">
          <mxGeometry relative="1" as="geometry">
            <Array as="points">
              <mxPoint x="1160" y="1870" />
              <mxPoint x="1160" y="1870" />
            </Array>
          </mxGeometry>
        </mxCell>
        <mxCell id="b3ruvdXfxAipYuuYTNX5-55" value="vote processor&lt;br&gt;(worker)" style="rounded=1;whiteSpace=wrap;html=1;" vertex="1" parent="1">
          <mxGeometry x="1120" y="1720" width="100" height="80" as="geometry" />
        </mxCell>
        <mxCell id="b3ruvdXfxAipYuuYTNX5-65" style="edgeStyle=orthogonalEdgeStyle;rounded=0;orthogonalLoop=1;jettySize=auto;html=1;" edge="1" parent="1" source="b3ruvdXfxAipYuuYTNX5-56" target="b3ruvdXfxAipYuuYTNX5-61">
          <mxGeometry relative="1" as="geometry" />
        </mxCell>
        <mxCell id="b3ruvdXfxAipYuuYTNX5-73" value="2." style="edgeLabel;html=1;align=center;verticalAlign=middle;resizable=0;points=[];" vertex="1" connectable="0" parent="b3ruvdXfxAipYuuYTNX5-65">
          <mxGeometry x="0.5167" y="1" relative="1" as="geometry">
            <mxPoint x="-1" y="-6" as="offset" />
          </mxGeometry>
        </mxCell>
        <mxCell id="b3ruvdXfxAipYuuYTNX5-78" style="rounded=0;orthogonalLoop=1;jettySize=auto;html=1;entryX=0.5;entryY=0;entryDx=0;entryDy=0;entryPerimeter=0;" edge="1" parent="1" source="b3ruvdXfxAipYuuYTNX5-56" target="b3ruvdXfxAipYuuYTNX5-62">
          <mxGeometry relative="1" as="geometry" />
        </mxCell>
        <mxCell id="b3ruvdXfxAipYuuYTNX5-81" value="1." style="edgeLabel;html=1;align=center;verticalAlign=middle;resizable=0;points=[];" vertex="1" connectable="0" parent="b3ruvdXfxAipYuuYTNX5-78">
          <mxGeometry x="0.5591" y="-3" relative="1" as="geometry">
            <mxPoint as="offset" />
          </mxGeometry>
        </mxCell>
        <mxCell id="b3ruvdXfxAipYuuYTNX5-56" value="lazy loader" style="rounded=1;whiteSpace=wrap;html=1;" vertex="1" parent="1">
          <mxGeometry x="1290" y="1800" width="120" height="40" as="geometry" />
        </mxCell>
        <mxCell id="b3ruvdXfxAipYuuYTNX5-63" style="edgeStyle=orthogonalEdgeStyle;rounded=0;orthogonalLoop=1;jettySize=auto;html=1;" edge="1" parent="1" source="b3ruvdXfxAipYuuYTNX5-57" target="b3ruvdXfxAipYuuYTNX5-62">
          <mxGeometry relative="1" as="geometry" />
        </mxCell>
        <mxCell id="b3ruvdXfxAipYuuYTNX5-70" value="1." style="edgeLabel;html=1;align=center;verticalAlign=middle;resizable=0;points=[];" vertex="1" connectable="0" parent="b3ruvdXfxAipYuuYTNX5-63">
          <mxGeometry x="0.3685" y="1" relative="1" as="geometry">
            <mxPoint x="-1" as="offset" />
          </mxGeometry>
        </mxCell>
        <mxCell id="b3ruvdXfxAipYuuYTNX5-79" style="rounded=0;orthogonalLoop=1;jettySize=auto;html=1;entryX=0.5;entryY=0;entryDx=0;entryDy=0;entryPerimeter=0;" edge="1" parent="1" source="b3ruvdXfxAipYuuYTNX5-57" target="b3ruvdXfxAipYuuYTNX5-61">
          <mxGeometry relative="1" as="geometry" />
        </mxCell>
        <mxCell id="b3ruvdXfxAipYuuYTNX5-80" value="2." style="edgeLabel;html=1;align=center;verticalAlign=middle;resizable=0;points=[];" vertex="1" connectable="0" parent="b3ruvdXfxAipYuuYTNX5-79">
          <mxGeometry x="0.7244" relative="1" as="geometry">
            <mxPoint as="offset" />
          </mxGeometry>
        </mxCell>
        <mxCell id="b3ruvdXfxAipYuuYTNX5-57" value="write through" style="rounded=1;whiteSpace=wrap;html=1;" vertex="1" parent="1">
          <mxGeometry x="1430" y="1800" width="120" height="40" as="geometry" />
        </mxCell>
        <mxCell id="b3ruvdXfxAipYuuYTNX5-61" value="postgres" style="shape=cylinder3;whiteSpace=wrap;html=1;boundedLbl=1;backgroundOutline=1;size=15;" vertex="1" parent="1">
          <mxGeometry x="1320" y="1920" width="60" height="80" as="geometry" />
        </mxCell>
        <mxCell id="b3ruvdXfxAipYuuYTNX5-62" value="redis" style="shape=cylinder3;whiteSpace=wrap;html=1;boundedLbl=1;backgroundOutline=1;size=15;" vertex="1" parent="1">
          <mxGeometry x="1460" y="1920" width="60" height="80" as="geometry" />
        </mxCell>
        <mxCell id="b3ruvdXfxAipYuuYTNX5-77" style="edgeStyle=orthogonalEdgeStyle;rounded=0;orthogonalLoop=1;jettySize=auto;html=1;exitX=0.5;exitY=1;exitDx=0;exitDy=0;" edge="1" parent="1" source="b3ruvdXfxAipYuuYTNX5-76" target="b3ruvdXfxAipYuuYTNX5-76">
          <mxGeometry relative="1" as="geometry" />
        </mxCell>
        <mxCell id="b3ruvdXfxAipYuuYTNX5-89" value="nodejs api" style="text;html=1;align=center;verticalAlign=middle;resizable=0;points=[];autosize=1;strokeColor=none;fillColor=none;" vertex="1" parent="1">
          <mxGeometry x="1760" y="1650" width="80" height="30" as="geometry" />
        </mxCell>
        <mxCell id="b3ruvdXfxAipYuuYTNX5-91" value="docker compose infrastructure" style="text;html=1;align=center;verticalAlign=middle;resizable=0;points=[];autosize=1;strokeColor=none;fillColor=none;" vertex="1" parent="1">
          <mxGeometry x="1820" y="1530" width="180" height="30" as="geometry" />
        </mxCell>
        <UserObject label="&lt;div style=&quot;font-size: 1px&quot;&gt;&lt;font style=&quot;font-size:11.64px;font-family:Helvetica;color:#000000;direction:ltr;letter-spacing:0px;line-height:120%;opacity:1&quot;&gt;(GET) /session/:session-id/results&lt;/font&gt;&lt;/div&gt;" tags="Background" id="b3ruvdXfxAipYuuYTNX5-92">
          <mxCell style="verticalAlign=middle;align=left;overflow=width;vsdxID=5;fillColor=#ffffff;gradientColor=none;shape=stencil(nZBRDoQgDERP03+WHsHFe5iISyOCQdT19kIaIxq//Jtp3zTpAFaTaUYNUkwx+F6v1EYD+AUpyRkdKCYFqACrzgf9C352LfuxyWRWg1/yhT/nRE5IsZWuZtCSK8CPeI0e/hF+jV7AJM4PO7KWCyr390bSiNtEtQM=);strokeColor=#000000;spacingTop=-3;spacingBottom=-3;spacingLeft=-3;spacingRight=-3;points=[];labelBackgroundColor=none;rounded=0;html=1;whiteSpace=wrap;" vertex="1" parent="1">
            <mxGeometry x="2200" y="2060" width="195" height="30" as="geometry" />
          </mxCell>
        </UserObject>
        <UserObject label="&lt;div style=&quot;font-size: 1px&quot;&gt;&lt;font style=&quot;font-size:11.64px;font-family:Helvetica;color:#000000;direction:ltr;letter-spacing:0px;line-height:120%;opacity:1&quot;&gt;(POST) /session/:session-id/close&lt;/font&gt;&lt;/div&gt;" tags="Background" id="b3ruvdXfxAipYuuYTNX5-93">
          <mxCell style="verticalAlign=middle;align=left;overflow=width;vsdxID=8;fillColor=#ffffff;gradientColor=none;shape=stencil(nZBRDoQgDERP03+WHsHFe5iISyOCQdT19kIaIxq//Jtp3zTpAFaTaUYNUkwx+F6v1EYD+AUpyRkdKCYFqACrzgf9C352LfuxyWRWg1/yhT/nRE5IsZWuZtCSK8CPeI0e/hF+jV7AJM4PO7KWCyr390bSiNtEtQM=);strokeColor=#000000;spacingTop=-3;spacingBottom=-3;spacingLeft=-3;spacingRight=-3;points=[];labelBackgroundColor=none;rounded=0;html=1;whiteSpace=wrap;" vertex="1" parent="1">
            <mxGeometry x="2200" y="2030" width="195" height="30" as="geometry" />
          </mxCell>
        </UserObject>
        <UserObject label="&lt;div style=&quot;font-size: 1px&quot;&gt;&lt;font style=&quot;font-size:11.64px;font-family:Helvetica;color:#000000;direction:ltr;letter-spacing:0px;line-height:120%;opacity:1&quot;&gt;(POST) /session/create&lt;/font&gt;&lt;/div&gt;" tags="Background" id="b3ruvdXfxAipYuuYTNX5-94">
          <mxCell style="verticalAlign=middle;align=left;overflow=width;vsdxID=11;fillColor=#ffffff;gradientColor=none;shape=stencil(nZBRDoQgDERP03+WHsHFe5iISyOCQdT19kIaIxq//Jtp3zTpAFaTaUYNUkwx+F6v1EYD+AUpyRkdKCYFqACrzgf9C352LfuxyWRWg1/yhT/nRE5IsZWuZtCSK8CPeI0e/hF+jV7AJM4PO7KWCyr390bSiNtEtQM=);strokeColor=#000000;spacingTop=-3;spacingBottom=-3;spacingLeft=-3;spacingRight=-3;points=[];labelBackgroundColor=none;rounded=0;html=1;whiteSpace=wrap;" vertex="1" parent="1">
            <mxGeometry x="2200" y="2000" width="195" height="30" as="geometry" />
          </mxCell>
        </UserObject>
        <UserObject label="&lt;div style=&quot;font-size: 1px&quot;&gt;&lt;font style=&quot;font-size:11.64px;font-family:Helvetica;color:#000000;direction:ltr;letter-spacing:0px;line-height:120%;opacity:1&quot;&gt;(POST) /session/:session-id/vote&lt;/font&gt;&lt;/div&gt;" tags="Background" id="b3ruvdXfxAipYuuYTNX5-95">
          <mxCell style="verticalAlign=middle;align=left;overflow=width;vsdxID=13;fillColor=#ffffff;gradientColor=none;shape=stencil(nZBRDoQgDERP03+WHsHFe5iISyOCQdT19kIaIxq//Jtp3zTpAFaTaUYNUkwx+F6v1EYD+AUpyRkdKCYFqACrzgf9C352LfuxyWRWg1/yhT/nRE5IsZWuZtCSK8CPeI0e/hF+jV7AJM4PO7KWCyr390bSiNtEtQM=);strokeColor=#000000;spacingTop=-3;spacingBottom=-3;spacingLeft=-3;spacingRight=-3;points=[];labelBackgroundColor=none;rounded=0;html=1;whiteSpace=wrap;" vertex="1" parent="1">
            <mxGeometry x="2200" y="2090" width="195" height="30" as="geometry" />
          </mxCell>
        </UserObject>
        <mxCell id="b3ruvdXfxAipYuuYTNX5-102" style="edgeStyle=orthogonalEdgeStyle;rounded=0;orthogonalLoop=1;jettySize=auto;html=1;" edge="1" parent="1" source="b3ruvdXfxAipYuuYTNX5-96" target="b3ruvdXfxAipYuuYTNX5-98">
          <mxGeometry relative="1" as="geometry" />
        </mxCell>
        <mxCell id="b3ruvdXfxAipYuuYTNX5-96" value="mailing service&lt;br&gt;(external)" style="ellipse;shape=cloud;whiteSpace=wrap;html=1;" vertex="1" parent="1">
          <mxGeometry x="1100" y="2070" width="120" height="90" as="geometry" />
        </mxCell>
        <mxCell id="b3ruvdXfxAipYuuYTNX5-101" style="edgeStyle=orthogonalEdgeStyle;rounded=0;orthogonalLoop=1;jettySize=auto;html=1;" edge="1" parent="1" source="b3ruvdXfxAipYuuYTNX5-98" target="b3ruvdXfxAipYuuYTNX5-50">
          <mxGeometry relative="1" as="geometry" />
        </mxCell>
        <mxCell id="b3ruvdXfxAipYuuYTNX5-98" value="" style="shape=umlActor;verticalLabelPosition=bottom;verticalAlign=top;html=1;outlineConnect=0;" vertex="1" parent="1">
          <mxGeometry x="2040" y="1730" width="30" height="60" as="geometry" />
        </mxCell>
      </root>
    </mxGraphModel>
  </diagram>
</mxfile>
